<svg xmlns="http://www.w3.org/2000/svg" width="808" height="584" viewBox="0 0 808 584"><defs><style>
  .t { font-family: -apple-system,BlinkMacSystemFont,Segoe UI,Helvetica,Arial,sans-serif; font-variant-numeric: tabular-lining; }
  .t-h { font-size: 15px; fill: #eef6ff; letter-spacing: 1.6px; font-weight: 800; }
  .t-sub { font-size: 11px; fill: #b7c3d7; }
  .t-label { font-size: 12px; fill: #b7c3d7; }
  .t-value { font-size: 11px; fill: #b7c3d7; }
  .t-subhdr { font-size: 11px; fill: #b7c3d7; letter-spacing: 1px; font-weight: 800; }
  .t-stat-label { font-size: 10px; fill: #b7c3d7; font-weight: 800; letter-spacing: 0.8px; }
  .t-stat-value { font-size: 24px; font-weight: 800; }
  .t-card-title { font-size: 12px; fill: #45b3ff; font-weight: 700; }
  .t-card-detail { font-size: 11px; fill: #b7c3d7; }
  .t-pill { font-size: 11px; font-weight: 600; }
  .t-bullet { font-size: 12px; fill: #eef6ff; }
  .bg-fill { fill: #090d14; }
  .card-fill { fill: #111827; }
  .surface-fill { fill: #111827; }
  .surface-stroke { stroke: #2f3b4f; }
  .border-stroke { stroke: #2f3b4f; }
  .muted-fill { fill: #7f8ca3; }
  .secondary-fill { fill: #b7c3d7; }
  .soft-line { stroke: #2f3b4f; stroke-opacity: 0.45; }

  @keyframes fadeIn {
    from { opacity: 0; transform: translateY(8px); }
    to { opacity: 1; transform: translateY(0); }
  }
  @keyframes scaleIn {
    from { transform: scale(0); opacity: 0; }
    to { transform: scale(1); opacity: 1; }
  }
  @keyframes drawPath {
    from { stroke-dashoffset: var(--path-length); }
    to { stroke-dashoffset: 0; }
  }
  @keyframes radarReveal {
    from { transform: scale(0); opacity: 0; }
    to { transform: scale(1); opacity: 0.6; }
  }
  .fade-1 { animation: fadeIn 0.6s ease-out 0.1s both; }
  .fade-2 { animation: fadeIn 0.6s ease-out 0.25s both; }
  .fade-3 { animation: fadeIn 0.6s ease-out 0.4s both; }
  .fade-4 { animation: fadeIn 0.6s ease-out 0.55s both; }
  .fade-5 { animation: fadeIn 0.6s ease-out 0.7s both; }
  .fade-6 { animation: fadeIn 0.6s ease-out 0.85s both; }
</style></defs><rect width="808" height="584" rx="12" class="bg-fill"/><path d="M 548 0 L 808 0 L 808 584 L 388 584 Z" fill="#45b3ff" opacity="0.05"/><path d="M 0 304 L 310 584 L 0 584 Z" fill="#2dd4bf" opacity="0.05"/><rect x="12" y="12" width="784" height="246" rx="14" class="surface-fill surface-stroke" stroke-width="1" opacity="0.92"/><rect x="12" y="12" width="4" height="246" rx="2" fill="#45b3ff"/><text x="24" y="40" class="t t-h">LANGUAGE VELOCITY</text><text x="24" y="56" class="t t-sub">How language usage has evolved over the past year</text><path key="Ruby" d="M 24,217.06748466257667 C 55.66666666666667,217.06748466257667 55.66666666666667,207.74233128834356 87.33333333333334,207.74233128834356 C 119.00000000000001,207.74233128834356 119.00000000000001,218 150.66666666666669,218 C 182.33333333333334,218 182.33333333333334,218 214,218 C 245.66666666666669,218 245.66666666666669,218 277.33333333333337,218 C 309,218 309,218 340.6666666666667,218 C 372.33333333333337,218 372.33333333333337,206.80981595092024 404,206.80981595092024 C 435.6666666666667,206.80981595092024 435.6666666666667,217.06748466257667 467.33333333333337,217.06748466257667 C 499.00000000000006,217.06748466257667 499.00000000000006,177.90184049079755 530.6666666666667,177.90184049079755 C 562.3333333333334,177.90184049079755 562.3333333333334,218 594,218 C 625.6666666666667,218 625.6666666666667,66 657.3333333333334,66 C 689,66 689,72.52760736196319 720.6666666666667,72.52760736196319 C 752.3333333333334,72.52760736196319 752.3333333333334,167.64417177914112 784,167.64417177914112 L 784,167.64417177914112 C 752.3333333333334,167.64417177914112 752.3333333333334,73.46012269938652 720.6666666666667,73.46012269938652 C 689,73.46012269938652 689,66.9325153374233 657.3333333333334,66.9325153374233 C 625.6666666666667,66.9325153374233 625.6666666666667,218 594,218 C 562.3333333333334,218 562.3333333333334,177.90184049079755 530.6666666666667,177.90184049079755 C 499.00000000000006,177.90184049079755 499.00000000000006,217.06748466257667 467.33333333333337,217.06748466257667 C 435.6666666666667,217.06748466257667 435.6666666666667,206.80981595092024 404,206.80981595092024 C 372.33333333333337,206.80981595092024 372.33333333333337,218 340.6666666666667,218 C 309,218 309,218 277.33333333333337,218 C 245.66666666666669,218 245.66666666666669,218 214,218 C 182.33333333333334,218 182.33333333333334,218 150.66666666666669,218 C 119.00000000000001,218 119.00000000000001,207.74233128834356 87.33333333333334,207.74233128834356 C 55.66666666666667,207.74233128834356 55.66666666666667,217.06748466257667 24,217.06748466257667 Z" fill="#701516" fill-opacity="0.88" class="fade-1"/><path key="Java" d="M 24,217.06748466257667 C 55.66666666666667,217.06748466257667 55.66666666666667,207.74233128834356 87.33333333333334,207.74233128834356 C 119.00000000000001,207.74233128834356 119.00000000000001,218 150.66666666666669,218 C 182.33333333333334,218 182.33333333333334,218 214,218 C 245.66666666666669,218 245.66666666666669,218 277.33333333333337,218 C 309,218 309,218 340.6666666666667,218 C 372.33333333333337,218 372.33333333333337,206.80981595092024 404,206.80981595092024 C 435.6666666666667,206.80981595092024 435.6666666666667,217.06748466257667 467.33333333333337,217.06748466257667 C 499.00000000000006,217.06748466257667 499.00000000000006,177.90184049079755 530.6666666666667,177.90184049079755 C 562.3333333333334,177.90184049079755 562.3333333333334,218 594,218 C 625.6666666666667,218 625.6666666666667,66.9325153374233 657.3333333333334,66.9325153374233 C 689,66.9325153374233 689,73.46012269938652 720.6666666666667,73.46012269938652 C 752.3333333333334,73.46012269938652 752.3333333333334,167.64417177914112 784,167.64417177914112 L 784,167.64417177914112 C 752.3333333333334,167.64417177914112 752.3333333333334,74.39263803680981 720.6666666666667,74.39263803680981 C 689,74.39263803680981 689,67.86503067484662 657.3333333333334,67.86503067484662 C 625.6666666666667,67.86503067484662 625.6666666666667,218 594,218 C 562.3333333333334,218 562.3333333333334,177.90184049079755 530.6666666666667,177.90184049079755 C 499.00000000000006,177.90184049079755 499.00000000000006,217.06748466257667 467.33333333333337,217.06748466257667 C 435.6666666666667,217.06748466257667 435.6666666666667,206.80981595092024 404,206.80981595092024 C 372.33333333333337,206.80981595092024 372.33333333333337,218 340.6666666666667,218 C 309,218 309,218 277.33333333333337,218 C 245.66666666666669,218 245.66666666666669,218 214,218 C 182.33333333333334,218 182.33333333333334,218 150.66666666666669,218 C 119.00000000000001,218 119.00000000000001,207.74233128834356 87.33333333333334,207.74233128834356 C 55.66666666666667,207.74233128834356 55.66666666666667,217.06748466257667 24,217.06748466257667 Z" fill="#b07219" fill-opacity="0.88" class="fade-2"/><path key="Vue" d="M 24,217.06748466257667 C 55.66666666666667,217.06748466257667 55.66666666666667,207.74233128834356 87.33333333333334,207.74233128834356 C 119.00000000000001,207.74233128834356 119.00000000000001,218 150.66666666666669,218 C 182.33333333333334,218 182.33333333333334,218 214,218 C 245.66666666666669,218 245.66666666666669,218 277.33333333333337,218 C 309,218 309,218 340.6666666666667,218 C 372.33333333333337,218 372.33333333333337,206.80981595092024 404,206.80981595092024 C 435.6666666666667,206.80981595092024 435.6666666666667,217.06748466257667 467.33333333333337,217.06748466257667 C 499.00000000000006,217.06748466257667 499.00000000000006,177.90184049079755 530.6666666666667,177.90184049079755 C 562.3333333333334,177.90184049079755 562.3333333333334,218 594,218 C 625.6666666666667,218 625.6666666666667,67.86503067484662 657.3333333333334,67.86503067484662 C 689,67.86503067484662 689,74.39263803680981 720.6666666666667,74.39263803680981 C 752.3333333333334,74.39263803680981 752.3333333333334,167.64417177914112 784,167.64417177914112 L 784,168.57668711656441 C 752.3333333333334,168.57668711656441 752.3333333333334,76.25766871165644 720.6666666666667,76.25766871165644 C 689,76.25766871165644 689,69.73006134969324 657.3333333333334,69.73006134969324 C 625.6666666666667,69.73006134969324 625.6666666666667,218 594,218 C 562.3333333333334,218 562.3333333333334,178.83435582822085 530.6666666666667,178.83435582822085 C 499.00000000000006,178.83435582822085 499.00000000000006,217.06748466257667 467.33333333333337,217.06748466257667 C 435.6666666666667,217.06748466257667 435.6666666666667,206.80981595092024 404,206.80981595092024 C 372.33333333333337,206.80981595092024 372.33333333333337,218 340.6666666666667,218 C 309,218 309,218 277.33333333333337,218 C 245.66666666666669,218 245.66666666666669,218 214,218 C 182.33333333333334,218 182.33333333333334,218 150.66666666666669,218 C 119.00000000000001,218 119.00000000000001,207.74233128834356 87.33333333333334,207.74233128834356 C 55.66666666666667,207.74233128834356 55.66666666666667,217.06748466257667 24,217.06748466257667 Z" fill="#41b883" fill-opacity="0.88" class="fade-3"/><path key="PowerShell" d="M 24,217.06748466257667 C 55.66666666666667,217.06748466257667 55.66666666666667,207.74233128834356 87.33333333333334,207.74233128834356 C 119.00000000000001,207.74233128834356 119.00000000000001,218 150.66666666666669,218 C 182.33333333333334,218 182.33333333333334,218 214,218 C 245.66666666666669,218 245.66666666666669,218 277.33333333333337,218 C 309,218 309,218 340.6666666666667,218 C 372.33333333333337,218 372.33333333333337,206.80981595092024 404,206.80981595092024 C 435.6666666666667,206.80981595092024 435.6666666666667,217.06748466257667 467.33333333333337,217.06748466257667 C 499.00000000000006,217.06748466257667 499.00000000000006,178.83435582822085 530.6666666666667,178.83435582822085 C 562.3333333333334,178.83435582822085 562.3333333333334,218 594,218 C 625.6666666666667,218 625.6666666666667,69.73006134969324 657.3333333333334,69.73006134969324 C 689,69.73006134969324 689,76.25766871165644 720.6666666666667,76.25766871165644 C 752.3333333333334,76.25766871165644 752.3333333333334,168.57668711656441 784,168.57668711656441 L 784,169.50920245398774 C 752.3333333333334,169.50920245398774 752.3333333333334,79.98773006134971 720.6666666666667,79.98773006134971 C 689,79.98773006134971 689,73.46012269938652 657.3333333333334,73.46012269938652 C 625.6666666666667,73.46012269938652 625.6666666666667,218 594,218 C 562.3333333333334,218 562.3333333333334,179.76687116564418 530.6666666666667,179.76687116564418 C 499.00000000000006,179.76687116564418 499.00000000000006,217.06748466257667 467.33333333333337,217.06748466257667 C 435.6666666666667,217.06748466257667 435.6666666666667,206.80981595092024 404,206.80981595092024 C 372.33333333333337,206.80981595092024 372.33333333333337,218 340.6666666666667,218 C 309,218 309,218 277.33333333333337,218 C 245.66666666666669,218 245.66666666666669,218 214,218 C 182.33333333333334,218 182.33333333333334,218 150.66666666666669,218 C 119.00000000000001,218 119.00000000000001,207.74233128834356 87.33333333333334,207.74233128834356 C 55.66666666666667,207.74233128834356 55.66666666666667,217.06748466257667 24,217.06748466257667 Z" fill="#012456" fill-opacity="0.88" class="fade-4"/><path key="Blade" d="M 24,217.06748466257667 C 55.66666666666667,217.06748466257667 55.66666666666667,207.74233128834356 87.33333333333334,207.74233128834356 C 119.00000000000001,207.74233128834356 119.00000000000001,218 150.66666666666669,218 C 182.33333333333334,218 182.33333333333334,218 214,218 C 245.66666666666669,218 245.66666666666669,218 277.33333333333337,218 C 309,218 309,218 340.6666666666667,218 C 372.33333333333337,218 372.33333333333337,206.80981595092024 404,206.80981595092024 C 435.6666666666667,206.80981595092024 435.6666666666667,217.06748466257667 467.33333333333337,217.06748466257667 C 499.00000000000006,217.06748466257667 499.00000000000006,179.76687116564418 530.6666666666667,179.76687116564418 C 562.3333333333334,179.76687116564418 562.3333333333334,218 594,218 C 625.6666666666667,218 625.6666666666667,73.46012269938652 657.3333333333334,73.46012269938652 C 689,73.46012269938652 689,79.98773006134971 720.6666666666667,79.98773006134971 C 752.3333333333334,79.98773006134971 752.3333333333334,169.50920245398774 784,169.50920245398774 L 784,171.37423312883436 C 752.3333333333334,171.37423312883436 752.3333333333334,85.58282208588957 720.6666666666667,85.58282208588957 C 689,85.58282208588957 689,79.05521472392638 657.3333333333334,79.05521472392638 C 625.6666666666667,79.05521472392638 625.6666666666667,218 594,218 C 562.3333333333334,218 562.3333333333334,181.6319018404908 530.6666666666667,181.6319018404908 C 499.00000000000006,181.6319018404908 499.00000000000006,217.06748466257667 467.33333333333337,217.06748466257667 C 435.6666666666667,217.06748466257667 435.6666666666667,206.80981595092024 404,206.80981595092024 C 372.33333333333337,206.80981595092024 372.33333333333337,218 340.6666666666667,218 C 309,218 309,218 277.33333333333337,218 C 245.66666666666669,218 245.66666666666669,218 214,218 C 182.33333333333334,218 182.33333333333334,218 150.66666666666669,218 C 119.00000000000001,218 119.00000000000001,207.74233128834356 87.33333333333334,207.74233128834356 C 55.66666666666667,207.74233128834356 55.66666666666667,217.06748466257667 24,217.06748466257667 Z" fill="#f7523f" fill-opacity="0.88" class="fade-5"/><path key="Python" d="M 24,217.06748466257667 C 55.66666666666667,217.06748466257667 55.66666666666667,207.74233128834356 87.33333333333334,207.74233128834356 C 119.00000000000001,207.74233128834356 119.00000000000001,218 150.66666666666669,218 C 182.33333333333334,218 182.33333333333334,218 214,218 C 245.66666666666669,218 245.66666666666669,218 277.33333333333337,218 C 309,218 309,218 340.6666666666667,218 C 372.33333333333337,218 372.33333333333337,206.80981595092024 404,206.80981595092024 C 435.6666666666667,206.80981595092024 435.6666666666667,217.06748466257667 467.33333333333337,217.06748466257667 C 499.00000000000006,217.06748466257667 499.00000000000006,181.6319018404908 530.6666666666667,181.6319018404908 C 562.3333333333334,181.6319018404908 562.3333333333334,218 594,218 C 625.6666666666667,218 625.6666666666667,79.05521472392638 657.3333333333334,79.05521472392638 C 689,79.05521472392638 689,85.58282208588957 720.6666666666667,85.58282208588957 C 752.3333333333334,85.58282208588957 752.3333333333334,171.37423312883436 784,171.37423312883436 L 784,182.5644171779141 C 752.3333333333334,182.5644171779141 752.3333333333334,117.28834355828222 720.6666666666667,117.28834355828222 C 689,117.28834355828222 689,112.62576687116564 657.3333333333334,112.62576687116564 C 625.6666666666667,112.62576687116564 625.6666666666667,218 594,218 C 562.3333333333334,218 562.3333333333334,190.0245398773006 530.6666666666667,190.0245398773006 C 499.00000000000006,190.0245398773006 499.00000000000006,217.06748466257667 467.33333333333337,217.06748466257667 C 435.6666666666667,217.06748466257667 435.6666666666667,209.6073619631902 404,209.6073619631902 C 372.33333333333337,209.6073619631902 372.33333333333337,218 340.6666666666667,218 C 309,218 309,218 277.33333333333337,218 C 245.66666666666669,218 245.66666666666669,218 214,218 C 182.33333333333334,218 182.33333333333334,218 150.66666666666669,218 C 119.00000000000001,218 119.00000000000001,210.53987730061348 87.33333333333334,210.53987730061348 C 55.66666666666667,210.53987730061348 55.66666666666667,217.06748466257667 24,217.06748466257667 Z" fill="#3572A5" fill-opacity="0.88" class="fade-6"/><path key="JavaScript" d="M 24,217.06748466257667 C 55.66666666666667,217.06748466257667 55.66666666666667,210.53987730061348 87.33333333333334,210.53987730061348 C 119.00000000000001,210.53987730061348 119.00000000000001,218 150.66666666666669,218 C 182.33333333333334,218 182.33333333333334,218 214,218 C 245.66666666666669,218 245.66666666666669,218 277.33333333333337,218 C 309,218 309,218 340.6666666666667,218 C 372.33333333333337,218 372.33333333333337,209.6073619631902 404,209.6073619631902 C 435.6666666666667,209.6073619631902 435.6666666666667,217.06748466257667 467.33333333333337,217.06748466257667 C 499.00000000000006,217.06748466257667 499.00000000000006,190.0245398773006 530.6666666666667,190.0245398773006 C 562.3333333333334,190.0245398773006 562.3333333333334,218 594,218 C 625.6666666666667,218 625.6666666666667,112.62576687116564 657.3333333333334,112.62576687116564 C 689,112.62576687116564 689,117.28834355828222 720.6666666666667,117.28834355828222 C 752.3333333333334,117.28834355828222 752.3333333333334,182.5644171779141 784,182.5644171779141 L 784,218 C 752.3333333333334,218 752.3333333333334,218 720.6666666666667,218 C 689,218 689,218 657.3333333333334,218 C 625.6666666666667,218 625.6666666666667,218 594,218 C 562.3333333333334,218 562.3333333333334,218 530.6666666666667,218 C 499.00000000000006,218 499.00000000000006,218 467.33333333333337,218 C 435.6666666666667,218 435.6666666666667,218 404,218 C 372.33333333333337,218 372.33333333333337,218 340.6666666666667,218 C 309,218 309,218 277.33333333333337,218 C 245.66666666666669,218 245.66666666666669,218 214,218 C 182.33333333333334,218 182.33333333333334,218 150.66666666666669,218 C 119.00000000000001,218 119.00000000000001,218 87.33333333333334,218 C 55.66666666666667,218 55.66666666666667,218 24,218 Z" fill="#f1e05a" fill-opacity="0.88" class="fade-6"/><rect x="24" y="224" width="8" height="8" rx="2" fill="#f1e05a" opacity="0.95"/><text x="36" y="232" class="t t-value">JavaScript</text><rect x="122" y="224" width="8" height="8" rx="2" fill="#3572A5" opacity="0.95"/><text x="134" y="232" class="t t-value">Python</text><rect x="192" y="224" width="8" height="8" rx="2" fill="#f7523f" opacity="0.95"/><text x="204" y="232" class="t t-value">Blade</text><rect x="255" y="224" width="8" height="8" rx="2" fill="#012456" opacity="0.95"/><text x="267" y="232" class="t t-value">PowerShell</text><rect x="353" y="224" width="8" height="8" rx="2" fill="#41b883" opacity="0.95"/><text x="365" y="232" class="t t-value">Vue</text><rect x="402" y="224" width="8" height="8" rx="2" fill="#b07219" opacity="0.95"/><text x="414" y="232" class="t t-value">Java</text><rect x="458" y="224" width="8" height="8" rx="2" fill="#701516" opacity="0.95"/><text x="470" y="232" class="t t-value">Ruby</text><text key="Sep" x="24" y="232" class="t t-value" text-anchor="start" opacity="0">Sep</text><text key="Nov" x="150.66666666666669" y="232" class="t t-value" text-anchor="start" opacity="0">Nov</text><text key="Jan" x="277.33333333333337" y="232" class="t t-value" text-anchor="start" opacity="0">Jan</text><text key="Mar" x="404" y="232" class="t t-value" text-anchor="start" opacity="0">Mar</text><text key="May" x="530.6666666666667" y="232" class="t t-value" text-anchor="start" opacity="0">May</text><text key="Jul" x="657.3333333333334" y="232" class="t t-value" text-anchor="start" opacity="0">Jul</text><text key="Sep" x="784" y="232" class="t t-value" text-anchor="start" opacity="0">Sep</text><rect x="12" y="256" width="784" height="316" rx="14" class="surface-fill surface-stroke" stroke-width="1" opacity="0.92"/><rect x="12" y="256" width="4" height="316" rx="2" fill="#45d483"/><text x="24" y="284" class="t t-h">CONTRIBUTION RHYTHM</text><text x="24" y="300" class="t t-sub">Activity patterns and statistics over the past year</text><circle key="0.25" cx="144" cy="430" r="22.5" fill="none" class="border-stroke" stroke-width="1" stroke-opacity="0.4"/><circle key="0.5" cx="144" cy="430" r="45" fill="none" class="border-stroke" stroke-width="1" stroke-opacity="0.4"/><circle key="0.75" cx="144" cy="430" r="67.5" fill="none" class="border-stroke" stroke-width="1" stroke-opacity="0.4"/><circle key="1" cx="144" cy="430" r="90" fill="none" class="border-stroke" stroke-width="1" stroke-opacity="0.4"/><line key="Sun" x1="144" y1="430" x2="144" y2="340" class="border-stroke" stroke-width="1" stroke-opacity="0.3"/><line key="Mon" x1="144" y1="430" x2="214.36483342212267" y2="373.885917832714" class="border-stroke" stroke-width="1" stroke-opacity="0.3"/><line key="Tue" x1="144" y1="430" x2="231.74351209636413" y2="450.0268840560683" class="border-stroke" stroke-width="1" stroke-opacity="0.3"/><line key="Wed" x1="144" y1="430" x2="183.04953652058023" y2="511.08719811121773" class="border-stroke" stroke-width="1" stroke-opacity="0.3"/><line key="Thu" x1="144" y1="430" x2="104.95046347941977" y2="511.08719811121773" class="border-stroke" stroke-width="1" stroke-opacity="0.3"/><line key="Fri" x1="144" y1="430" x2="56.25648790363587" y2="450.0268840560683" class="border-stroke" stroke-width="1" stroke-opacity="0.3"/><line key="Sat" x1="144" y1="430" x2="73.63516657787731" y2="373.885917832714" class="border-stroke" stroke-width="1" stroke-opacity="0.3"/><polygon points="144,383.16614420062695 173.9988004558266,406.07675493808495 158.02795961415225,433.2017902409388 149.75337998892562,441.94701664961514 138.00179533069456,442.45540033683284 105.21681753734376,438.8520083131838 73.63516657787731,373.885917832714" fill="#45b3ff" fill-opacity="0.3" stroke="#45b3ff" stroke-width="3" stroke-opacity="0.95" class="fade-2" style="transform-origin: 144px 430px"/><circle key="Sun" cx="144" cy="383.16614420062695" r="3" fill="#45b3ff" stroke="#ffffff" stroke-opacity="0.45" stroke-width="1" class="fade-1"/><circle key="Mon" cx="173.9988004558266" cy="406.07675493808495" r="3" fill="#45b3ff" stroke="#ffffff" stroke-opacity="0.45" stroke-width="1" class="fade-2"/><circle key="Tue" cx="158.02795961415225" cy="433.2017902409388" r="3" fill="#45b3ff" stroke="#ffffff" stroke-opacity="0.45" stroke-width="1" class="fade-3"/><circle key="Wed" cx="149.75337998892562" cy="441.94701664961514" r="3" fill="#45b3ff" stroke="#ffffff" stroke-opacity="0.45" stroke-width="1" class="fade-4"/><circle key="Thu" cx="138.00179533069456" cy="442.45540033683284" r="3" fill="#45b3ff" stroke="#ffffff" stroke-opacity="0.45" stroke-width="1" class="fade-5"/><circle key="Fri" cx="105.21681753734376" cy="438.8520083131838" r="3" fill="#45b3ff" stroke="#ffffff" stroke-opacity="0.45" stroke-width="1" class="fade-6"/><circle key="Sat" cx="73.63516657787731" cy="373.885917832714" r="3" fill="#45b3ff" stroke="#ffffff" stroke-opacity="0.45" stroke-width="1" class="fade-6"/><text key="Sun" x="144" y="328" class="t t-value" text-anchor="middle">Sun</text><text key="Mon" x="226.87413714161116" y="367.91008100297427" class="t t-value" text-anchor="middle">Mon</text><text key="Tue" x="247.34235869127332" y="457.5872189993693" class="t t-value" text-anchor="middle">Tue</text><text key="Wed" x="189.99167634646116" y="529.5026999976565" class="t t-value" text-anchor="middle">Wed</text><text key="Thu" x="98.00832365353884" y="529.5026999976565" class="t t-value" text-anchor="middle">Thu</text><text key="Fri" x="40.657641308726696" y="457.5872189993693" class="t t-value" text-anchor="middle">Fri</text><text key="Sat" x="61.12586285838883" y="367.91008100297427" class="t t-value" text-anchor="middle">Sat</text><text x="324" y="340" class="t t-stat-label">COMMITS</text><text x="324" y="362" fill="#45b3ff" class="t t-stat-value">629</text><text x="324" y="382" class="t t-stat-label">PRS</text><text x="324" y="404" fill="#45d483" class="t t-stat-value">15</text><text x="324" y="424" class="t t-stat-label">REVIEWS</text><text x="324" y="446" fill="#f6b342" class="t t-stat-value">0</text><text x="324" y="466" class="t t-stat-label">REPOS</text><text x="324" y="488" fill="#a88cff" class="t t-stat-value">46</text><text x="324" y="508" class="t t-stat-label">STREAK</text><text x="324" y="530" fill="#2dd4bf" class="t t-stat-value">59d</text></svg>